<svg xmlns="http://www.w3.org/2000/svg" width="1024" height="1024" viewBox="0 0 1024 1024" version="1.1"><path d="M 40.001 384.708 C 33.863 386.924, 25.689 395.408, 23.583 401.749 C 22.136 406.105, 21.996 415.970, 22.234 496.556 L 22.500 586.500 24.874 591.323 C 27.917 597.504, 33.179 602.649, 39.500 605.626 L 44.500 607.980 119 607.968 C 191.744 607.956, 193.606 607.908, 198 605.923 C 203.476 603.450, 209.421 597.883, 212.335 592.500 C 214.474 588.549, 214.503 587.797, 214.782 531.034 C 215.081 469.881, 215.074 469.777, 210.230 465.966 C 206.651 463.151, 203.596 463.503, 200.589 467.077 L 198 470.153 198 525.176 C 198 585.247, 198.098 584.171, 192.217 588.500 C 189.571 590.448, 187.701 590.507, 120.281 590.776 C 43.807 591.082, 45.949 591.245, 42.026 584.810 C 40.042 581.557, 40.007 579.997, 40.004 494.618 L 40 407.736 43.524 404.412 L 47.048 401.089 106.452 400.794 C 165.008 400.504, 165.896 400.470, 168.678 398.400 C 172.063 395.881, 172.722 392.752, 170.563 389.456 C 166.753 383.641, 169.331 383.874, 104.304 383.462 C 51.003 383.125, 44.011 383.260, 40.001 384.708 M 195.864 416.750 C 180.916 434.762, 168.044 450.175, 167.260 451 C 165.679 452.664, 165.411 452.406, 148.352 432.750 C 138.026 420.852, 136.382 420.402, 130.084 427.750 C 127.813 430.400, 126.010 433.549, 126.006 434.873 C 126.002 436.457, 129.076 440.695, 135.250 447.619 C 140.338 453.324, 147.875 462, 152 466.899 C 160.260 476.709, 162.686 478.547, 166.209 477.662 C 168.757 477.023, 231.024 403.521, 234.331 397.250 C 237.581 391.087, 233.428 384, 226.567 384 C 223.160 384, 222.141 385.088, 195.864 416.750 M 363.299 439.960 C 359.743 442.127, 357 446.632, 357 450.302 C 357 456.382, 365.573 463.077, 371.465 461.598 C 375.955 460.471, 380.073 455.919, 380.601 451.500 C 381.187 446.592, 379.569 443.300, 375.088 440.280 C 370.946 437.489, 367.504 437.395, 363.299 439.960 M 679.325 439.411 C 677.579 440.197, 675.381 442.016, 674.439 443.453 C 672.254 446.788, 672.241 453.192, 674.413 456.507 C 680.425 465.683, 694.475 461.840, 695.733 450.676 C 696.184 446.678, 695.893 445.857, 692.867 442.579 C 688.948 438.333, 684.193 437.221, 679.325 439.411 M 294.105 442.530 C 285.815 444.840, 279.413 448.804, 273.139 455.510 C 262.308 467.088, 258.463 479.326, 259.315 499.500 C 260.141 519.063, 264.317 530.292, 274.661 540.767 C 278.833 544.992, 283.073 548.088, 287.675 550.267 C 294.281 553.396, 294.916 553.500, 307.500 553.494 C 319.496 553.489, 320.942 553.282, 326.220 550.813 C 336.900 545.816, 345.542 535.319, 347.475 524.995 L 348.130 521.491 338.592 518.906 L 329.054 516.322 327.471 521.089 C 323.984 531.587, 317.470 537.005, 308.349 536.994 C 301.035 536.986, 296.239 535.261, 291.575 530.962 C 282.473 522.573, 278.507 510.493, 279.276 493.500 C 280.071 475.918, 285.482 465.479, 296.444 460.374 C 309.410 454.336, 322.973 460.371, 327.575 474.226 C 328.450 476.860, 329.466 478.841, 329.833 478.627 C 330.200 478.413, 334.438 477.020, 339.250 475.530 C 345.951 473.457, 348 472.406, 348 471.046 C 348 470.068, 346.404 466.078, 344.452 462.177 C 340.380 454.038, 334.595 448.400, 326.124 444.313 C 321.294 441.983, 319.018 441.560, 310 441.313 C 302.910 441.120, 297.748 441.515, 294.105 442.530 M 908.499 449.500 C 906.962 453.900, 898.086 478.577, 888.774 504.338 C 879.462 530.099, 872.075 551.408, 872.359 551.693 C 872.643 551.977, 877.568 552.449, 883.304 552.741 L 893.732 553.274 894.404 548.387 C 894.774 545.699, 896.255 539.563, 897.696 534.750 L 900.315 526 922.036 526 L 943.756 526 945.832 531.750 C 948.803 539.979, 949.988 544.960, 949.994 549.250 L 950 553 957.750 552.942 C 962.013 552.911, 967.190 552.573, 969.256 552.192 L 973.011 551.500 968.094 537.500 C 965.390 529.800, 956.354 505.050, 948.014 482.500 L 932.850 441.500 922.072 441.500 L 911.293 441.500 908.499 449.500 M 530.694 442.787 C 521.083 443.068, 520.903 443.118, 521.592 445.287 C 522.454 447.999, 535.989 500.418, 543.658 530.750 L 549.284 553 560.104 553 L 570.923 553 571.901 549.250 C 572.439 547.188, 573.614 542.575, 574.513 539 C 576.998 529.115, 587.855 489.412, 590.224 481.546 L 592.319 474.592 597.684 494.046 C 602.620 511.945, 610.935 543.661, 612.428 550.284 L 613.055 553.067 623.726 552.784 L 634.397 552.500 638.222 538 C 640.326 530.025, 646.762 505.717, 652.524 483.982 C 658.286 462.248, 663 444.135, 663 443.732 C 663 443.330, 658.530 443, 653.067 443 C 644.455 443, 643.072 443.233, 642.661 444.750 C 642.400 445.712, 640.138 454.825, 637.635 465 C 625.356 514.913, 623.676 521.583, 623.110 522.668 C 622.774 523.310, 617.848 506.435, 612.161 485.168 C 606.475 463.900, 601.651 445.938, 601.443 445.250 C 601.176 444.374, 598.435 444, 592.272 444 L 583.482 444 580.743 454.750 C 576.813 470.172, 562.132 523.201, 561.662 523.671 C 561.445 523.889, 560.977 522.255, 560.622 520.041 C 559.396 512.369, 542.225 443.826, 541.365 443.165 C 540.889 442.799, 536.087 442.629, 530.694 442.787 M 992.500 442.784 L 983.500 443.068 983.731 497.784 L 983.961 552.500 993.481 552.786 L 1003 553.072 1003 498.095 C 1003 467.858, 1002.663 442.979, 1002.250 442.809 C 1001.837 442.639, 997.450 442.628, 992.500 442.784 M 66.364 448.170 C 61.379 450.584, 60.661 457.815, 64.978 462.132 L 67.957 465.111 89.567 464.805 L 111.177 464.500 113.588 461.694 C 116.924 457.813, 116.740 453.587, 113.077 449.923 L 110.154 447 89.327 447.068 C 77.175 447.107, 67.610 447.566, 66.364 448.170 M 410.250 452.321 L 402 453.332 402 463.166 C 402 468.575, 401.663 472.947, 401.250 472.882 C 400.837 472.816, 398.137 472.816, 395.250 472.882 L 390 473 390 480.500 C 390 485.786, 390.369 488.026, 391.250 488.089 C 391.938 488.138, 394.610 488.106, 397.188 488.018 L 401.876 487.858 402.188 513.679 C 402.493 538.916, 402.557 539.613, 405 544.500 C 408.355 551.210, 413.689 554, 423.163 554 C 430.051 554, 438.397 552.620, 440.896 551.069 C 442.052 550.351, 441.803 548.827, 439.439 542.176 C 436.982 535.261, 436.349 534.278, 434.860 535.075 C 433.909 535.584, 431.109 536, 428.637 536 C 420.997 536, 421 536.009, 421 510.429 L 421 488 431.553 488 L 442.105 488 441.907 480.500 L 441.708 473 431.276 473 L 420.844 473 421.111 462.252 C 421.418 449.921, 422.413 450.831, 410.250 452.321 M 921.034 468.500 C 918.313 475.276, 907 506.818, 907.001 507.627 C 907.001 508.107, 913.977 508.500, 922.502 508.500 C 931.026 508.500, 938.001 508.456, 938.001 508.402 C 938 508.328, 929.032 483.916, 922.731 466.834 C 922.432 466.025, 921.764 466.681, 921.034 468.500 M 375.500 471.255 C 373.300 472.386, 369.025 473.579, 366 473.906 L 360.500 474.500 360.500 513.500 L 360.500 552.500 369.767 552.788 C 376.621 553.001, 379.163 552.740, 379.528 551.787 C 379.800 551.078, 379.905 532.206, 379.761 509.849 L 379.500 469.200 375.500 471.255 M 690.500 471.200 C 688.300 472.361, 684.025 473.579, 681 473.906 L 675.500 474.500 675.238 513.750 L 674.977 553 684.988 553 L 695 553 695 511 C 695 487.900, 694.888 469.020, 694.750 469.044 C 694.612 469.069, 692.700 470.039, 690.500 471.200 M 470.666 472.678 C 463.661 475.093, 456.245 482.185, 452.814 489.750 C 445.124 506.709, 447.197 532.126, 457.198 543.488 C 463.560 550.715, 469.521 553.235, 481.500 553.762 C 489.967 554.135, 492.361 553.877, 497.116 552.080 C 504.267 549.376, 510.147 543.504, 512.897 536.318 C 516.158 527.797, 516.338 528, 505.500 528 C 496.969 528, 496 528.186, 496 529.826 C 496 531.769, 492.917 535.020, 489.316 536.875 C 486.120 538.521, 481.069 538.215, 476.394 536.091 C 471.665 533.944, 468.068 527.784, 467.237 520.409 L 466.740 516 492.017 516 L 517.295 516 516.634 507.250 C 515.372 490.555, 509.975 479.965, 499.964 474.537 C 495.171 471.939, 493.333 471.540, 485 471.293 C 478.125 471.090, 474.164 471.473, 470.666 472.678 M 723.907 472.302 C 713.467 475.783, 707.007 484.280, 707.032 494.500 C 707.062 506.987, 715.236 514.819, 734.768 521.077 C 743.772 523.961, 749 527.986, 749 532.034 C 749 541.102, 731.354 542.723, 723.986 534.331 C 722.344 532.461, 721 530.271, 721 529.465 C 721 527.520, 720.671 527.564, 712.250 530.629 C 704.149 533.578, 703.670 534.487, 706.903 540.790 C 709.422 545.703, 712.474 548.428, 718.512 551.155 C 725.195 554.173, 742.166 554.971, 750.128 552.641 C 763.293 548.788, 770.306 536.443, 766.590 523.660 C 764.010 514.786, 756.049 509.070, 738 503.132 C 734.425 501.956, 730.026 500.095, 728.225 498.996 C 719.599 493.735, 723.501 484.996, 734.473 485.004 C 740.381 485.008, 745.192 487.536, 747.394 491.795 L 748.885 494.678 755.692 492.456 C 759.437 491.233, 762.837 490.432, 763.250 490.676 C 764.698 491.530, 763.980 486.882, 762.097 483.210 C 759.868 478.862, 756.854 475.939, 752 473.413 C 747.678 471.165, 729.477 470.445, 723.907 472.302 M 798.379 472.778 C 787.041 476.824, 779.430 487.255, 777.060 502 C 773.017 527.147, 781.877 547.322, 799.226 552.474 C 805.843 554.439, 817.205 554.425, 823.878 552.444 C 832.514 549.879, 840.107 541.064, 842.562 530.750 L 843.217 528 833.858 528.022 L 824.500 528.043 823 531.272 C 820.013 537.701, 809.292 539.859, 802.487 535.400 C 799.059 533.153, 796.030 527.052, 795.305 520.932 L 794.721 516 820.004 516 L 845.288 516 844.632 508.143 C 843.151 490.386, 837.361 479.718, 826.035 473.876 C 819.872 470.698, 805.778 470.139, 798.379 472.778 M 478.021 486.116 C 472.937 488.144, 468 495.212, 468 500.460 L 468 503 482.371 503 L 496.742 503 495.867 498.319 C 494.791 492.559, 492.856 489.492, 488.696 486.956 C 485.219 484.836, 481.886 484.574, 478.021 486.116 M 806.001 486.077 C 800.604 488.329, 796 495.026, 796 500.622 L 796 503 810.394 503 L 824.787 503 823.836 498.766 C 822.534 492.969, 820.953 490.015, 817.977 487.814 C 814.846 485.499, 809.310 484.696, 806.001 486.077 M 65.114 494.558 C 60.881 498.119, 60.808 502.961, 64.923 507.077 L 67.846 510 109.500 510 L 151.154 510 154.077 507.077 C 157.741 503.413, 157.924 499.186, 154.587 495.306 L 152.175 492.500 110.201 492.219 L 68.228 491.938 65.114 494.558 M 64.481 539.428 C 60.328 543.581, 61.385 550.014, 66.684 552.837 C 69.697 554.441, 163.828 554.491, 167.343 552.890 C 171.974 550.779, 173.330 544.290, 170.035 540 L 168.115 537.500 117.539 537.223 L 66.963 536.946 64.481 539.428" stroke="none" fill="#0c1e3b" fill-rule="evenodd"/><path d="M 0 512.001 L 0 1024.002 512.250 1023.751 L 1024.500 1023.500 1024.751 511.750 L 1025.002 0 512.501 0 L 0 0 0 512.001 M 0.496 512.500 C 0.496 794.100, 0.610 909.151, 0.750 768.168 C 0.890 627.186, 0.890 396.786, 0.750 256.168 C 0.610 115.551, 0.496 230.900, 0.496 512.500 M 40.001 384.708 C 33.863 386.924, 25.689 395.408, 23.583 401.749 C 22.136 406.105, 21.996 415.970, 22.234 496.556 L 22.500 586.500 24.874 591.323 C 27.917 597.504, 33.179 602.649, 39.500 605.626 L 44.500 607.980 119 607.968 C 191.744 607.956, 193.606 607.908, 198 605.923 C 203.476 603.450, 209.421 597.883, 212.335 592.500 C 214.474 588.549, 214.503 587.797, 214.782 531.034 C 215.081 469.881, 215.074 469.777, 210.230 465.966 C 206.651 463.151, 203.596 463.503, 200.589 467.077 L 198 470.153 198 525.176 C 198 585.247, 198.098 584.171, 192.217 588.500 C 189.571 590.448, 187.701 590.507, 120.281 590.776 C 43.807 591.082, 45.949 591.245, 42.026 584.810 C 40.042 581.557, 40.007 579.997, 40.004 494.618 L 40 407.736 43.524 404.412 L 47.048 401.089 106.452 400.794 C 165.008 400.504, 165.896 400.470, 168.678 398.400 C 172.063 395.881, 172.722 392.752, 170.563 389.456 C 166.753 383.641, 169.331 383.874, 104.304 383.462 C 51.003 383.125, 44.011 383.260, 40.001 384.708 M 195.864 416.750 C 180.916 434.762, 168.044 450.175, 167.260 451 C 165.679 452.664, 165.411 452.406, 148.352 432.750 C 138.026 420.852, 136.382 420.402, 130.084 427.750 C 127.813 430.400, 126.010 433.549, 126.006 434.873 C 126.002 436.457, 129.076 440.695, 135.250 447.619 C 140.338 453.324, 147.875 462, 152 466.899 C 160.260 476.709, 162.686 478.547, 166.209 477.662 C 168.757 477.023, 231.024 403.521, 234.331 397.250 C 237.581 391.087, 233.428 384, 226.567 384 C 223.160 384, 222.141 385.088, 195.864 416.750 M 363.299 439.960 C 359.743 442.127, 357 446.632, 357 450.302 C 357 456.382, 365.573 463.077, 371.465 461.598 C 375.955 460.471, 380.073 455.919, 380.601 451.500 C 381.187 446.592, 379.569 443.300, 375.088 440.280 C 370.946 437.489, 367.504 437.395, 363.299 439.960 M 679.325 439.411 C 677.579 440.197, 675.381 442.016, 674.439 443.453 C 672.254 446.788, 672.241 453.192, 674.413 456.507 C 680.425 465.683, 694.475 461.840, 695.733 450.676 C 696.184 446.678, 695.893 445.857, 692.867 442.579 C 688.948 438.333, 684.193 437.221, 679.325 439.411 M 294.105 442.530 C 285.815 444.840, 279.413 448.804, 273.139 455.510 C 262.308 467.088, 258.463 479.326, 259.315 499.500 C 260.141 519.063, 264.317 530.292, 274.661 540.767 C 278.833 544.992, 283.073 548.088, 287.675 550.267 C 294.281 553.396, 294.916 553.500, 307.500 553.494 C 319.496 553.489, 320.942 553.282, 326.220 550.813 C 336.900 545.816, 345.542 535.319, 347.475 524.995 L 348.130 521.491 338.592 518.906 L 329.054 516.322 327.471 521.089 C 323.984 531.587, 317.470 537.005, 308.349 536.994 C 301.035 536.986, 296.239 535.261, 291.575 530.962 C 282.473 522.573, 278.507 510.493, 279.276 493.500 C 280.071 475.918, 285.482 465.479, 296.444 460.374 C 309.410 454.336, 322.973 460.371, 327.575 474.226 C 328.450 476.860, 329.466 478.841, 329.833 478.627 C 330.200 478.413, 334.438 477.020, 339.250 475.530 C 345.951 473.457, 348 472.406, 348 471.046 C 348 470.068, 346.404 466.078, 344.452 462.177 C 340.380 454.038, 334.595 448.400, 326.124 444.313 C 321.294 441.983, 319.018 441.560, 310 441.313 C 302.910 441.120, 297.748 441.515, 294.105 442.530 M 908.499 449.500 C 906.962 453.900, 898.086 478.577, 888.774 504.338 C 879.462 530.099, 872.075 551.408, 872.359 551.693 C 872.643 551.977, 877.568 552.449, 883.304 552.741 L 893.732 553.274 894.404 548.387 C 894.774 545.699, 896.255 539.563, 897.696 534.750 L 900.315 526 922.036 526 L 943.756 526 945.832 531.750 C 948.803 539.979, 949.988 544.960, 949.994 549.250 L 950 553 957.750 552.942 C 962.013 552.911, 967.190 552.573, 969.256 552.192 L 973.011 551.500 968.094 537.500 C 965.390 529.800, 956.354 505.050, 948.014 482.500 L 932.850 441.500 922.072 441.500 L 911.293 441.500 908.499 449.500 M 530.694 442.787 C 521.083 443.068, 520.903 443.118, 521.592 445.287 C 522.454 447.999, 535.989 500.418, 543.658 530.750 L 549.284 553 560.104 553 L 570.923 553 571.901 549.250 C 572.439 547.188, 573.614 542.575, 574.513 539 C 576.998 529.115, 587.855 489.412, 590.224 481.546 L 592.319 474.592 597.684 494.046 C 602.620 511.945, 610.935 543.661, 612.428 550.284 L 613.055 553.067 623.726 552.784 L 634.397 552.500 638.222 538 C 640.326 530.025, 646.762 505.717, 652.524 483.982 C 658.286 462.248, 663 444.135, 663 443.732 C 663 443.330, 658.530 443, 653.067 443 C 644.455 443, 643.072 443.233, 642.661 444.750 C 642.400 445.712, 640.138 454.825, 637.635 465 C 625.356 514.913, 623.676 521.583, 623.110 522.668 C 622.774 523.310, 617.848 506.435, 612.161 485.168 C 606.475 463.900, 601.651 445.938, 601.443 445.250 C 601.176 444.374, 598.435 444, 592.272 444 L 583.482 444 580.743 454.750 C 576.813 470.172, 562.132 523.201, 561.662 523.671 C 561.445 523.889, 560.977 522.255, 560.622 520.041 C 559.396 512.369, 542.225 443.826, 541.365 443.165 C 540.889 442.799, 536.087 442.629, 530.694 442.787 M 992.500 442.784 L 983.500 443.068 983.731 497.784 L 983.961 552.500 993.481 552.786 L 1003 553.072 1003 498.095 C 1003 467.858, 1002.663 442.979, 1002.250 442.809 C 1001.837 442.639, 997.450 442.628, 992.500 442.784 M 66.364 448.170 C 61.379 450.584, 60.661 457.815, 64.978 462.132 L 67.957 465.111 89.567 464.805 L 111.177 464.500 113.588 461.694 C 116.924 457.813, 116.740 453.587, 113.077 449.923 L 110.154 447 89.327 447.068 C 77.175 447.107, 67.610 447.566, 66.364 448.170 M 410.250 452.321 L 402 453.332 402 463.166 C 402 468.575, 401.663 472.947, 401.250 472.882 C 400.837 472.816, 398.137 472.816, 395.250 472.882 L 390 473 390 480.500 C 390 485.786, 390.369 488.026, 391.250 488.089 C 391.938 488.138, 394.610 488.106, 397.188 488.018 L 401.876 487.858 402.188 513.679 C 402.493 538.916, 402.557 539.613, 405 544.500 C 408.355 551.210, 413.689 554, 423.163 554 C 430.051 554, 438.397 552.620, 440.896 551.069 C 442.052 550.351, 441.803 548.827, 439.439 542.176 C 436.982 535.261, 436.349 534.278, 434.860 535.075 C 433.909 535.584, 431.109 536, 428.637 536 C 420.997 536, 421 536.009, 421 510.429 L 421 488 431.553 488 L 442.105 488 441.907 480.500 L 441.708 473 431.276 473 L 420.844 473 421.111 462.252 C 421.418 449.921, 422.413 450.831, 410.250 452.321 M 921.034 468.500 C 918.313 475.276, 907 506.818, 907.001 507.627 C 907.001 508.107, 913.977 508.500, 922.502 508.500 C 931.026 508.500, 938.001 508.456, 938.001 508.402 C 938 508.328, 929.032 483.916, 922.731 466.834 C 922.432 466.025, 921.764 466.681, 921.034 468.500 M 375.500 471.255 C 373.300 472.386, 369.025 473.579, 366 473.906 L 360.500 474.500 360.500 513.500 L 360.500 552.500 369.767 552.788 C 376.621 553.001, 379.163 552.740, 379.528 551.787 C 379.800 551.078, 379.905 532.206, 379.761 509.849 L 379.500 469.200 375.500 471.255 M 690.500 471.200 C 688.300 472.361, 684.025 473.579, 681 473.906 L 675.500 474.500 675.238 513.750 L 674.977 553 684.988 553 L 695 553 695 511 C 695 487.900, 694.888 469.020, 694.750 469.044 C 694.612 469.069, 692.700 470.039, 690.500 471.200 M 470.666 472.678 C 463.661 475.093, 456.245 482.185, 452.814 489.750 C 445.124 506.709, 447.197 532.126, 457.198 543.488 C 463.560 550.715, 469.521 553.235, 481.500 553.762 C 489.967 554.135, 492.361 553.877, 497.116 552.080 C 504.267 549.376, 510.147 543.504, 512.897 536.318 C 516.158 527.797, 516.338 528, 505.500 528 C 496.969 528, 496 528.186, 496 529.826 C 496 531.769, 492.917 535.020, 489.316 536.875 C 486.120 538.521, 481.069 538.215, 476.394 536.091 C 471.665 533.944, 468.068 527.784, 467.237 520.409 L 466.740 516 492.017 516 L 517.295 516 516.634 507.250 C 515.372 490.555, 509.975 479.965, 499.964 474.537 C 495.171 471.939, 493.333 471.540, 485 471.293 C 478.125 471.090, 474.164 471.473, 470.666 472.678 M 723.907 472.302 C 713.467 475.783, 707.007 484.280, 707.032 494.500 C 707.062 506.987, 715.236 514.819, 734.768 521.077 C 743.772 523.961, 749 527.986, 749 532.034 C 749 541.102, 731.354 542.723, 723.986 534.331 C 722.344 532.461, 721 530.271, 721 529.465 C 721 527.520, 720.671 527.564, 712.250 530.629 C 704.149 533.578, 703.670 534.487, 706.903 540.790 C 709.422 545.703, 712.474 548.428, 718.512 551.155 C 725.195 554.173, 742.166 554.971, 750.128 552.641 C 763.293 548.788, 770.306 536.443, 766.590 523.660 C 764.010 514.786, 756.049 509.070, 738 503.132 C 734.425 501.956, 730.026 500.095, 728.225 498.996 C 719.599 493.735, 723.501 484.996, 734.473 485.004 C 740.381 485.008, 745.192 487.536, 747.394 491.795 L 748.885 494.678 755.692 492.456 C 759.437 491.233, 762.837 490.432, 763.250 490.676 C 764.698 491.530, 763.980 486.882, 762.097 483.210 C 759.868 478.862, 756.854 475.939, 752 473.413 C 747.678 471.165, 729.477 470.445, 723.907 472.302 M 798.379 472.778 C 787.041 476.824, 779.430 487.255, 777.060 502 C 773.017 527.147, 781.877 547.322, 799.226 552.474 C 805.843 554.439, 817.205 554.425, 823.878 552.444 C 832.514 549.879, 840.107 541.064, 842.562 530.750 L 843.217 528 833.858 528.022 L 824.500 528.043 823 531.272 C 820.013 537.701, 809.292 539.859, 802.487 535.400 C 799.059 533.153, 796.030 527.052, 795.305 520.932 L 794.721 516 820.004 516 L 845.288 516 844.632 508.143 C 843.151 490.386, 837.361 479.718, 826.035 473.876 C 819.872 470.698, 805.778 470.139, 798.379 472.778 M 478.021 486.116 C 472.937 488.144, 468 495.212, 468 500.460 L 468 503 482.371 503 L 496.742 503 495.867 498.319 C 494.791 492.559, 492.856 489.492, 488.696 486.956 C 485.219 484.836, 481.886 484.574, 478.021 486.116 M 806.001 486.077 C 800.604 488.329, 796 495.026, 796 500.622 L 796 503 810.394 503 L 824.787 503 823.836 498.766 C 822.534 492.969, 820.953 490.015, 817.977 487.814 C 814.846 485.499, 809.310 484.696, 806.001 486.077 M 65.114 494.558 C 60.881 498.119, 60.808 502.961, 64.923 507.077 L 67.846 510 109.500 510 L 151.154 510 154.077 507.077 C 157.741 503.413, 157.924 499.186, 154.587 495.306 L 152.175 492.500 110.201 492.219 L 68.228 491.938 65.114 494.558 M 64.481 539.428 C 60.328 543.581, 61.385 550.014, 66.684 552.837 C 69.697 554.441, 163.828 554.491, 167.343 552.890 C 171.974 550.779, 173.330 544.290, 170.035 540 L 168.115 537.500 117.539 537.223 L 66.963 536.946 64.481 539.428" stroke="none" fill="#fbfbfb" fill-rule="evenodd"/></svg>